<?xml version="1.0" encoding="UTF-8"?>
<svg id="Capa_1" xmlns="http://www.w3.org/2000/svg" version="1.1" viewBox="0 0 1080 1080">
  <!-- Generator: Adobe Illustrator 29.0.0, SVG Export Plug-In . SVG Version: 2.1.0 Build 186)  -->
  <defs>
    <style>
      .st0 {
        fill: #1f4371;
      }

      .st1 {
        fill: #ee732e;
      }
    </style>
  </defs>
  <g id="g956">
    <path id="path958" class="st0" d="M519.86,693.39l-183.31-200.02c-33.01-36-51.32-83.1-51.32-131.95V10.67l234.55,263.87.02,80.16c-36.83,9.47-64.06,42.87-64.06,82.68s27.25,73.26,64.11,82.7l.03,173.31"/>
  </g>
  <g id="g960">
    <path id="path962" class="st0" d="M797.27,10.67l-.1,352.36c-.01,48.8-18.31,95.83-51.28,131.84l-181.83,198.54v-173.82c35.97-10.03,62.35-43.04,62.35-82.2s-26.38-72.17-62.35-82.2v-82.15L797.27,10.67"/>
  </g>
  <g id="g964">
    <path id="path966" class="st0" d="M168.85,1068.8c-8.33,0-15.83-1.04-22.49-3.15-6.66-2.13-12.33-5.36-16.99-9.75-4.67-4.39-8.25-9.93-10.75-16.67-2.5-6.72-3.75-14.63-3.75-23.72v-65.49h32.99v64.8c0,8.45,1.93,14.7,5.78,18.75,3.86,4.06,9.04,6.07,15.54,6.07s11.68-1.93,15.54-5.83c3.86-3.88,5.79-9.93,5.79-18.16v-65.64h32.99v64.64c0,9.44-1.31,17.58-3.91,24.41-2.61,6.83-6.28,12.44-11,16.83-4.72,4.39-10.44,7.63-17.16,9.75-6.72,2.11-14.25,3.15-22.57,3.15"/>
  </g>
  <g id="g968">
    <path id="path970" class="st0" d="M290.47,1007.99c5.77,0,10.3-1.35,13.58-4.1,3.27-2.73,4.91-6.45,4.91-11.13v-.33c0-5.03-1.64-8.87-4.91-11.48-3.28-2.62-7.86-3.95-13.74-3.95h-15.16v30.99h15.33ZM242.81,950.02h49.98c7.33,0,13.99.91,19.99,2.75,6,1.84,11.1,4.5,15.33,8,4.22,3.5,7.47,7.8,9.75,12.9,2.28,5.12,3.42,10.88,3.42,17.34v.33c0,6.89-1.25,12.92-3.75,18.16-2.5,5.23-5.97,9.6-10.41,13.17-4.44,3.55-9.75,6.21-15.91,7.98-6.17,1.8-12.86,2.68-20.08,2.68h-15.99v33.32h-32.32v-116.63"/>
  </g>
  <g id="g972">
    <path id="path974" class="st0" d="M385.34,978.35h-34.99v-28.33h102.29v28.33h-34.99v88.3h-32.32v-88.3"/>
  </g>
  <g id="g976">
    <path id="path978" class="st0" d="M517.8,1020.84l-13-33.15-13.16,33.15h26.16ZM489.47,949.2h31.16l49.65,117.45h-34.65l-8.5-20.82h-44.98l-8.33,20.82h-33.99l49.65-117.45"/>
  </g>
  <g id="g980">
    <path id="path982" class="st0" d="M584.34,950.02h34.16l27.82,45.16,27.82-45.16h34.16v116.63h-32.16v-66.97l-29.74,45.65h-.67l-29.57-45.31v66.64h-31.82v-116.63"/>
  </g>
  <g id="g984">
    <path id="path986" class="st0" d="M782.33,1069c-8.33,0-16.16-1.51-23.49-4.5-7.33-2.99-13.69-7.19-19.07-12.58-5.39-5.39-9.66-11.78-12.83-19.17-3.17-7.39-4.75-15.42-4.75-24.07v-.33c0-8.45,1.55-16.35,4.66-23.74,3.11-7.39,7.38-13.84,12.83-19.34,5.44-5.48,11.91-9.78,19.41-12.91,7.5-3.11,15.69-4.66,24.57-4.66,6,0,11.44.58,16.33,1.75,4.88,1.18,9.35,2.84,13.41,4.99,4.05,2.17,7.72,4.75,11,7.74,3.27,3.02,6.19,6.28,8.74,9.85l-24.32,18.81c-3.33-4.21-7-7.54-11-9.98s-8.83-3.68-14.49-3.68c-4.11,0-7.86.82-11.24,2.42-3.39,1.62-6.31,3.82-8.75,6.59-2.44,2.77-4.36,6.06-5.75,9.83-1.39,3.77-2.08,7.79-2.08,12v.33c0,4.33.69,8.41,2.08,12.24,1.39,3.84,3.3,7.14,5.75,9.92,2.44,2.77,5.36,4.97,8.75,6.57,3.39,1.62,7.13,2.42,11.24,2.42,3,0,5.75-.33,8.25-1s4.77-1.64,6.83-2.91c2.05-1.29,4-2.77,5.83-4.5,1.83-1.73,3.64-3.64,5.41-5.75l24.32,17.32c-2.78,3.77-5.81,7.28-9.08,10.49-3.28,3.22-7,6.01-11.16,8.34-4.17,2.33-8.83,4.15-14,5.5-5.16,1.33-10.97,2-17.41,2"/>
  </g>
  <g id="g988">
    <path id="path990" class="st0" d="M913.32,1020.84l-12.99-33.15-13.16,33.15h26.16ZM884.99,949.2h31.15l49.65,117.45h-34.65l-8.5-20.82h-44.98l-8.33,20.82h-33.99l49.65-117.45"/>
  </g>
  <g id="g992">
    <path id="path994" class="st1" d="M882.02,864.07H200.47v-85.33h681.54v85.33"/>
  </g>
</svg>